<?xml version="1.0" standalone="no"?>
<!DOCTYPE svg PUBLIC "-//W3C//DTD SVG 20010904//EN"
 "http://www.w3.org/TR/2001/REC-SVG-20010904/DTD/svg10.dtd">
<svg version="1.0" xmlns="http://www.w3.org/2000/svg"
 width="1078.000000pt" height="1080.000000pt" viewBox="0 0 1078.000000 1080.000000"
 preserveAspectRatio="xMidYMid meet">

<g transform="translate(0.000000,1080.000000) scale(0.100000,-0.100000)"
fill="#000000" stroke="none">
<path d="M2693 9434 l-2683 -1346 0 -469 c0 -258 2 -469 4 -469 2 0 1005 499
2228 1108 l2223 1108 52 -435 c364 -3075 846 -7088 853 -7095 5 -5 16 -6 24
-3 15 6 16 382 16 3992 0 2192 2 3985 4 3985 1 0 1203 -598 2670 -1330 1467
-731 2670 -1330 2672 -1330 2 0 4 211 4 469 l0 470 -2684 1345 c-1476 740
-2687 1346 -2692 1346 -5 -1 -1216 -606 -2691 -1346z"/>
<path d="M6260 5415 c0 -2697 2 -3126 14 -3131 8 -3 827 403 1820 903 l1805
908 1 473 c0 259 -3 472 -7 472 -3 0 -607 -301 -1340 -670 -734 -368 -1337
-670 -1339 -670 -2 0 -4 767 -4 1705 0 938 2 1705 5 1705 3 0 800 -396 1772
-880 971 -484 1768 -880 1770 -880 1 0 3 214 3 476 l0 476 -2246 1119 c-1235
615 -2247 1119 -2250 1119 -2 0 -4 -1406 -4 -3125z"/>
<path d="M3578 8079 c-17 -9 -18 -167 -18 -3095 l0 -3084 -422 212 -423 213
-3 2658 c-1 1461 -4 2657 -7 2657 -3 0 -216 -104 -475 -232 l-470 -231 0
-2184 c0 -1200 -2 -2183 -5 -2183 -3 0 -194 95 -425 210 l-420 211 0 1759 0
1760 -450 -225 -450 -225 2 -1791 3 -1791 2685 -1346 2685 -1346 2685 1346
2685 1346 3 482 c2 393 0 481 -11 477 -7 -3 -1216 -610 -2687 -1350 l-2674
-1345 -437 218 -436 219 -6 38 c-3 21 -207 1522 -453 3336 -247 1813 -451
3297 -454 3297 -3 0 -13 -5 -22 -11z"/>
</g>
</svg>
